<?xml version="1.0" encoding="UTF-8" standalone="no"?>
<!-- Created with Inkscape (http://www.inkscape.org/) -->

<svg
   version="1.1"
   id="svg2"
   width="100"
   height="100"
   viewBox="0 0 100 100"
   sodipodi:docname="black_king.svg"
   inkscape:version="1.2 (dc2aedaf03, 2022-05-15)"
   xmlns:inkscape="http://www.inkscape.org/namespaces/inkscape"
   xmlns:sodipodi="http://sodipodi.sourceforge.net/DTD/sodipodi-0.dtd"
   xmlns="http://www.w3.org/2000/svg"
   xmlns:svg="http://www.w3.org/2000/svg">
  <defs
     id="defs6" />
  <sodipodi:namedview
     id="namedview4"
     pagecolor="#ffffff"
     bordercolor="#000000"
     borderopacity="0.25"
     inkscape:showpageshadow="2"
     inkscape:pageopacity="0.0"
     inkscape:pagecheckerboard="0"
     inkscape:deskcolor="#d1d1d1"
     showgrid="false"
     inkscape:zoom="8"
     inkscape:cx="41.0625"
     inkscape:cy="42"
     inkscape:window-width="1920"
     inkscape:window-height="1017"
     inkscape:window-x="-8"
     inkscape:window-y="-8"
     inkscape:window-maximized="1"
     inkscape:current-layer="layer2" />
  <g
     inkscape:groupmode="layer"
     id="layer2"
     inkscape:label="Vector"
     transform="matrix(2,0,0,2,0.87930504,0.11709004)"
     style="display:inline">
    <path
       style="fill:#000000;fill-opacity:1"
       d="M 12.886114,30.259922 12.78125,39.71875 c 0,0 10.34375,7.875 24,-0.03125 L 37.150849,30.082925 37.375,27.405054 26.65625,24.8125 19.573824,24.950359 12.59375,28.432475 Z"
       id="path5648"
       transform="translate(-0.22097087,0.48613591)" />
    <path
       style="fill:#ffffff;fill-opacity:1"
       d="m 24.232154,28.334597 1.719726,0.01563 0.0038,1.115847 0.965744,0.0046 -0.973326,1.052236 -0.04687,1.191292 -1.740713,-0.03773 0.0092,-1.162722 -1.117743,-1.029354 1.15357,-0.01563 z"
       id="path5620"
       transform="translate(-0.22097087,0.48613591)"
       sodipodi:nodetypes="ccccccccccc" />
    <path
       style="fill:#ffffff;fill-opacity:1"
       d="m 14.5625,37.71875 c 0,0 9.78125,-7.46875 20.96875,0.125 l 0.15625,-2.0625 c 0,0 -11.78125,-6.9375 -21.25,0.1875 z"
       id="path5622"
       transform="translate(-0.22097087,0.48613591)" />
    <path
       style="fill:#ffffff;fill-opacity:1"
       d="m 35.355339,31.245281 -0.03315,1.071709 h -1.160097 l 1.082758,0.872835 0.05524,1.701475 h 0.441942 l -0.06629,-3.668116 z"
       id="path5624"
       transform="translate(-0.22097087,0.48613591)" />
    <path
       style="fill:#ffffff;fill-opacity:1"
       d="m 14.548785,31.245281 0.03315,1.071709 h 1.160097 l -1.082758,0.872835 -0.05524,1.701475 h -0.441942 l 0.06629,-3.668116 z"
       id="path5624-0"
       transform="translate(-0.22097087,0.48613591)" />
    <path
       style="fill:#ffffff;fill-opacity:1"
       d="m 24.3818,26.942056 c 0,0 -8.002147,2.485095 -11.071693,2.723335 -3.069546,0.23824 -5.9368686,-4.07694 -5.9368686,-4.07694 l -1.4762456,-3.690614 1.2775202,-4.144844 2.3563152,-2.263341 2.5834298,-0.903345 5.791425,0.903345 3.346646,3.051981 2.435979,4.115254 1.423736,2.789611 z"
       id="path4762" />
    <path
       style="fill:#ffffff;fill-opacity:1"
       d="m 21.146762,17.793854 c 0,0 1.601164,3.790265 2.753427,6.031361 0.241341,0.469396 0.980618,0.553917 1.106288,0.873504 0,0 1.337474,-5.13902 3.846761,-6.925632 l -0.883261,-2.027504 -2.2609,-1.36606 -0.72014,-0.09936 -0.511895,-0.441635 -0.708685,0.943372 -1.720305,1.224652 z"
       id="path1726"
       sodipodi:nodetypes="csccccccccc" />
    <ellipse
       style="fill:#000000;fill-opacity:1"
       id="path1722"
       cx="24.988937"
       cy="18.355242"
       rx="1.1944206"
       ry="2.2081723" />
    <path
       style="fill:#ffffff;fill-opacity:1"
       d="m 24.554699,25.929112 c 0,0 -1.457704,0.623599 -0.172899,1.012944 1.220134,0.369748 5.224385,0.252831 11.838345,2.604988 l 2.015947,-0.465903 4.206379,-3.03717 0.477296,-4.77012 -0.653758,-2.552708 -2.505633,-3.389693 -3.579447,-0.419844 c -3.601379,-0.91887 -1.728258,0.441181 -2.691824,0.179501 l -4.663511,2.932932 -2.277695,2.952848 z"
       id="path3719-9"
       sodipodi:nodetypes="csccccccccccc" />
    <path
       style="fill:#000000;fill-opacity:1"
       d="m 25.322307,25.084987 -0.543278,2.293908 c 0.894912,0.124278 -0.08204,-0.488159 -0.634622,-0.363881 l 0.103586,-1.97522 c 0,0 -1.987253,-4.874011 -4.684241,-7.296054 0,0 -1.107184,-2.183294 -6.841831,-2.422043 -5.7346463,-0.238749 -9.3968711,10.229111 0.652955,14.402344 l -0.709733,1.022017 c 0,0 -14.2156816,-7.359693 -3.0142253,-16.192383 0,0 9.8242163,-4.8031569 15.3306673,10.486119 z"
       id="path3722-5"
       sodipodi:nodetypes="cccccsccccc" />
    <path
       style="fill:#000000;fill-opacity:1"
       d="m 24.257089,24.884553 0.479123,0.571675 c -0.894912,0.124278 0.03351,1.900628 0.586095,2.024906 l 0.02472,-2.618337 c 0,0 1.987253,-4.874011 4.684241,-7.296054 0,0 1.107184,-2.183294 6.841831,-2.422043 5.734646,-0.238749 9.396871,10.229111 -0.652955,14.402344 l 0.709733,1.022017 c 0,0 14.215681,-7.359693 3.014225,-16.192383 0,0 -9.824216,-4.8031573 -15.330667,10.486119 z"
       id="path3722-5-1"
       sodipodi:nodetypes="cccccsccccc" />
    <path
       style="fill:#000000;fill-opacity:1"
       d="m 27.604576,25.565095 c 0,0 4.097365,0.974003 7.892237,2.469879 3.217919,1.268451 8.263561,-7.714606 2.986602,-10.362326 -2.564094,-1.286537 -6.904331,-2.3845 -10.878839,7.892447 z"
       id="path3682-7"
       sodipodi:nodetypes="cssc" />
    <path
       style="fill:#000000;fill-opacity:1"
       d="m 21.982632,25.565095 c 0,0 -4.165496,0.90143 -7.892237,2.469879 -3.188058,1.341737 -7.8598125,-6.966877 -2.986602,-10.299826 2.657844,-1.817787 6.904331,-2.447 10.878839,7.829947 z"
       id="path3682-0-2"
       sodipodi:nodetypes="cssc" />
    <path
       style="fill:#000000;fill-opacity:1"
       d="m 23.877503,14.331913 c 0,0 -2.718941,0.301759 -3.642359,2.851235 l 0.801133,0.765386 c 0,0 1.648432,-2.92605 4.126019,-3.255434 0,0 0.92069,-0.312569 3.690942,3.079987 l 0.823046,-0.682526 c 0,0 -0.442818,-2.310443 -3.18255,-2.800749 z"
       id="path1724"
       sodipodi:nodetypes="cccccccc" />
    <path
       style="fill:#000000;fill-opacity:1"
       d="m 23.824972,6.0095918 2.58343,0.028389 v 3.0376594 l 1.589803,-0.028389 0.02839,1.5046348 -1.561413,-0.05678 0.08517,4.485516 -2.725377,-0.05678 -0.141947,-4.286791 h -1.731749 l 0.05678,-1.5614127 h 1.816918 z"
       id="path1183"
       sodipodi:nodetypes="ccccccccccccc" />
  </g>
</svg>
